# xmcd CD database file
#
# Track frame offsets:
#	150
#	17157
#	39430
#	115517
#	142543
#	243901
#	261611
#	290806
#
# Disc length: 4216 seconds
#
# Revision: 1
# Processed by: cddbd v1.5.2PL0 Copyright (c) Steve Scherf et al.
# Submitted via: CDex 1.70beta3
#
DISCID=6a107608
DTITLE=赤﨑千夏 and 田村睦心 and 高部あい - キルミーベイベー 殺し屋ラジオ CDスペシャル その3
DYEAR=2012
DGENRE=Anime
TTITLE0=オープニング
TTITLE1=おバカと殺し屋 1
TTITLE2=3人で振り返る、キルミーベイベー総決算!!
TTITLE3=おバカと殺し屋 2
TTITLE4=鹿児島でも東京でもない世界
TTITLE5=おバカと殺し屋 3
TTITLE6=ソーニャの挑戦状!
TTITLE7=エンディング
EXTD=YEAR: 2012
EXTT0=
EXTT1=
EXTT2=
EXTT3=
EXTT4=
EXTT5=
EXTT6=
EXTT7=
PLAYORDER=
